<?xml version="1.0" encoding="utf-8" ?>
<svg baseProfile="tiny" height="208" version="1.2" width="697" xmlns="http://www.w3.org/2000/svg" xmlns:ev="http://www.w3.org/2001/xml-events" xmlns:xlink="http://www.w3.org/1999/xlink"><defs /><path d="M 165,112 L 163,114 L 163,116 L 165,118 L 166,118 L 167,117 L 168,117 L 168,114 L 166,112 Z" fill="black" /><path d="M 155,57 L 154,58 L 154,61 L 156,63 L 158,63 L 160,61 L 160,58 L 159,57 Z" fill="black" /><path d="M 98,55 L 97,56 L 97,59 L 99,61 L 101,61 L 103,59 L 103,56 L 102,55 Z" fill="black" /><path d="M 127,26 L 126,27 L 118,27 L 117,28 L 113,28 L 112,29 L 109,29 L 108,30 L 106,30 L 105,31 L 104,31 L 103,32 L 101,32 L 100,33 L 99,33 L 97,35 L 96,35 L 95,36 L 94,36 L 85,45 L 85,56 L 92,56 L 93,55 L 93,54 L 97,50 L 103,50 L 107,54 L 107,55 L 108,56 L 108,59 L 107,60 L 107,61 L 106,62 L 106,63 L 105,64 L 104,64 L 103,65 L 102,65 L 101,66 L 99,66 L 98,65 L 96,65 L 95,64 L 95,63 L 93,61 L 85,61 L 85,63 L 84,64 L 84,80 L 82,82 L 81,82 L 80,81 L 76,81 L 75,82 L 75,83 L 74,84 L 74,91 L 75,92 L 75,101 L 76,102 L 76,111 L 77,112 L 77,114 L 78,115 L 78,116 L 80,118 L 81,118 L 82,119 L 84,119 L 85,120 L 85,125 L 86,126 L 86,134 L 87,135 L 87,143 L 88,144 L 88,146 L 91,149 L 91,150 L 93,152 L 93,153 L 96,156 L 96,157 L 100,161 L 100,162 L 104,166 L 104,167 L 109,172 L 109,173 L 116,180 L 117,180 L 118,181 L 146,181 L 147,180 L 148,180 L 155,173 L 155,172 L 160,167 L 160,166 L 164,162 L 164,161 L 167,158 L 167,157 L 170,154 L 170,153 L 172,151 L 172,150 L 176,146 L 176,144 L 177,143 L 177,134 L 178,133 L 178,125 L 179,124 L 179,120 L 180,119 L 182,119 L 183,118 L 184,118 L 186,116 L 186,115 L 187,114 L 187,111 L 190,108 L 191,108 L 195,104 L 195,103 L 202,96 L 202,86 L 206,82 L 206,81 L 207,80 L 207,76 L 206,75 L 206,74 L 203,71 L 197,71 L 193,75 L 193,81 L 194,82 L 194,83 L 195,84 L 196,84 L 197,85 L 197,95 L 188,104 L 187,103 L 179,103 L 178,104 L 177,104 L 174,107 L 174,108 L 171,111 L 171,112 L 172,113 L 172,118 L 169,121 L 168,121 L 167,122 L 165,122 L 164,121 L 163,121 L 162,120 L 161,120 L 160,119 L 160,118 L 159,117 L 159,114 L 160,113 L 160,112 L 163,109 L 164,109 L 165,108 L 166,109 L 167,109 L 170,106 L 170,105 L 176,99 L 188,99 L 189,98 L 189,92 L 190,91 L 190,84 L 189,83 L 189,82 L 188,81 L 184,81 L 183,82 L 182,82 L 181,83 L 180,82 L 180,73 L 186,67 L 186,66 L 193,59 L 193,58 L 197,54 L 198,54 L 199,55 L 201,55 L 202,54 L 204,54 L 207,51 L 221,51 L 214,44 L 214,43 L 213,42 L 213,41 L 214,40 L 214,38 L 213,37 L 199,37 L 198,38 L 198,39 L 197,40 L 196,40 L 194,42 L 194,43 L 193,44 L 193,51 L 190,54 L 190,55 L 178,67 L 173,62 L 165,62 L 163,64 L 163,65 L 162,66 L 161,66 L 160,67 L 154,67 L 150,63 L 150,62 L 149,61 L 149,59 L 150,58 L 150,56 L 153,53 L 154,53 L 155,52 L 159,52 L 160,53 L 161,53 L 164,56 L 164,57 L 174,57 L 175,58 L 176,58 L 178,60 L 178,61 L 179,61 L 179,46 L 178,45 L 178,44 L 171,37 L 170,37 L 168,35 L 167,35 L 165,33 L 163,33 L 162,32 L 161,32 L 160,31 L 159,31 L 158,30 L 156,30 L 155,29 L 152,29 L 151,28 L 147,28 L 146,27 L 139,27 L 138,26 L 135,26 L 134,27 L 131,27 L 130,26 Z" fill="black" /></svg>